<svg xmlns="http://www.w3.org/2000/svg" viewBox="0 0 600 400">
  <!-- Conference Room Scene -->
  
  <!-- Background Wall -->
  <rect x="0" y="0" width="600" height="400" fill="#f5f5f5" />
  
  <!-- Floor -->
  <rect x="0" y="300" width="600" height="100" fill="#d9d9d9" />
  
  <!-- Conference Table -->
  <ellipse cx="300" cy="280" rx="200" ry="80" fill="#8b4513" stroke="#663300" stroke-width="3" />
  <ellipse cx="300" cy="270" rx="190" ry="70" fill="#a0522d" stroke="#663300" stroke-width="1" />
  
  <!-- Chairs -->
  <rect x="150" y="320" width="60" height="20" fill="#4d4d4d" /> <!-- Chair base 1 -->
  <rect x="160" y="220" width="40" height="100" fill="#4d4d4d" /> <!-- Chair back 1 -->
  
  <rect x="250" y="320" width="60" height="20" fill="#4d4d4d" /> <!-- Chair base 2 -->
  <rect x="260" y="220" width="40" height="100" fill="#4d4d4d" /> <!-- Chair back 2 -->
  
  <rect x="350" y="320" width="60" height="20" fill="#4d4d4d" /> <!-- Chair base 3 -->
  <rect x="360" y="220" width="40" height="100" fill="#4d4d4d" /> <!-- Chair back 3 -->
  
  <rect x="450" y="320" width="60" height="20" fill="#4d4d4d" /> <!-- Chair base 4 -->
  <rect x="460" y="220" width="40" height="100" fill="#4d4d4d" /> <!-- Chair back 4 -->
  
  <!-- Window -->
  <rect x="450" y="50" width="120" height="150" fill="#a8e6ff" stroke="#2b2b2b" stroke-width="3" />
  <line x1="510" y1="50" x2="510" y2="200" stroke="#2b2b2b" stroke-width="3" />
  <line x1="450" y1="125" x2="570" y2="125" stroke="#2b2b2b" stroke-width="3" />
  
  <!-- Door -->
  <rect x="50" y="100" width="80" height="180" fill="#ffffff" stroke="#2b2b2b" stroke-width="3" />
  <circle cx="120" cy="190" r="5" fill="#4a90e2" /> <!-- Doorknob -->
  
  <!-- Whiteboard -->
  <rect x="180" y="40" width="240" height="140" fill="#ffffff" stroke="#2b2b2b" stroke-width="3" />
  <line x1="200" y1="70" x2="400" y2="70" stroke="#2b2b2b" stroke-width="1" stroke-dasharray="2" />
  <line x1="200" y1="100" x2="400" y2="100" stroke="#2b2b2b" stroke-width="1" stroke-dasharray="2" />
  <line x1="200" y1="130" x2="400" y2="130" stroke="#2b2b2b" stroke-width="1" stroke-dasharray="2" />
  <line x1="200" y1="160" x2="400" y2="160" stroke="#2b2b2b" stroke-width="1" stroke-dasharray="2" />
  
  <!-- Items on Table -->
  <rect x="250" y="250" width="30" height="20" fill="#ffffff" stroke="#2b2b2b" stroke-width="1" /> <!-- Paper -->
  <rect x="290" y="250" width="20" height="20" fill="#2b2b2b" /> <!-- Device -->
  <circle cx="350" cy="260" r="10" fill="#ffffff" stroke="#2b2b2b" stroke-width="1" /> <!-- Cup -->
</svg>
