<svg xmlns="http://www.w3.org/2000/svg" viewBox="0 0 200 200">
  <!-- Administrator Avatar -->
  <!-- Head -->
  <circle cx="100" cy="70" r="50" fill="#f5d0b0" />
  <!-- Hair -->
  <path d="M60 50 Q 60 30 100 30 Q 140 30 140 50 L 140 60 Q 120 70 80 70 Q 60 60 60 50" fill="#808080" />
  <!-- Face -->
  <circle cx="80" cy="65" r="5" fill="#2b2b2b" /> <!-- Left eye -->
  <circle cx="120" cy="65" r="5" fill="#2b2b2b" /> <!-- Right eye -->
  <path d="M90 80 Q 100 85 110 80" fill="none" stroke="#2b2b2b" stroke-width="2" /> <!-- Neutral expression -->
  <!-- Glasses -->
  <rect x="75" y="60" width="15" height="10" rx="3" ry="3" fill="none" stroke="#2b2b2b" stroke-width="1" />
  <rect x="110" y="60" width="15" height="10" rx="3" ry="3" fill="none" stroke="#2b2b2b" stroke-width="1" />
  <line x1="90" y1="65" x2="110" y2="65" stroke="#2b2b2b" stroke-width="1" />
  <!-- Business Attire -->
  <path d="M60 100 L 60 180 L 140 180 L 140 100 Q 120 110 100 110 Q 80 110 60 100" fill="#2c3e50" stroke="#2b2b2b" stroke-width="2" />
  <!-- Shirt Collar -->
  <path d="M85 100 L 100 120 L 115 100" fill="#ffffff" stroke="#cccccc" stroke-width="1" />
  <!-- Tie -->
  <path d="M100 120 L 95 140 L 100 160 L 105 140 Z" fill="#e74c3c" />
  <!-- ID Badge -->
  <rect x="120" y="130" width="15" height="20" fill="#ffffff" stroke="#2b2b2b" stroke-width="1" />
</svg>
