<svg xmlns="http://www.w3.org/2000/svg" viewBox="0 0 200 200">
  <!-- Female Doctor Avatar -->
  <!-- Head -->
  <circle cx="100" cy="70" r="50" fill="#f5d0b0" />
  <!-- Hair -->
  <path d="M60 70 Q 60 30 100 30 Q 140 30 140 70 L 140 90 Q 120 100 80 100 Q 60 90 60 70" fill="#2b2b2b" />
  <!-- Face -->
  <circle cx="80" cy="65" r="5" fill="#2b2b2b" /> <!-- Left eye -->
  <circle cx="120" cy="65" r="5" fill="#2b2b2b" /> <!-- Right eye -->
  <path d="M90 80 Q 100 90 110 80" fill="none" stroke="#2b2b2b" stroke-width="2" /> <!-- Smile -->
  <!-- Lab Coat -->
  <path d="M60 100 L 60 180 L 140 180 L 140 100 Q 120 110 100 110 Q 80 110 60 100" fill="#ffffff" stroke="#cccccc" stroke-width="2" />
  <!-- Stethoscope -->
  <path d="M90 120 Q 80 130 85 140 Q 90 150 100 150 Q 110 150 115 140 Q 120 130 110 120" fill="#4a90e2" />
  <circle cx="100" cy="150" r="5" fill="#2b2b2b" />
  <!-- Name Tag -->
  <rect x="115" y="120" width="20" height="10" fill="#e74c3c" />
</svg>
