<svg xmlns="http://www.w3.org/2000/svg" viewBox="0 0 200 200">
  <!-- Family Member Male Avatar -->
  <!-- Head -->
  <circle cx="100" cy="70" r="50" fill="#f5d0b0" />
  <!-- Hair -->
  <path d="M60 50 Q 60 30 100 30 Q 140 30 140 50 L 140 60 Q 120 70 80 70 Q 60 60 60 50" fill="#663300" />
  <!-- Face -->
  <circle cx="80" cy="65" r="5" fill="#2b2b2b" /> <!-- Left eye -->
  <circle cx="120" cy="65" r="5" fill="#2b2b2b" /> <!-- Right eye -->
  <path d="M90 80 Q 100 75 110 80" fill="none" stroke="#2b2b2b" stroke-width="2" /> <!-- Concerned expression -->
  <!-- Facial Hair -->
  <path d="M85 90 Q 100 100 115 90" fill="#663300" /> <!-- Beard -->
  <!-- Clothing -->
  <path d="M60 100 L 60 180 L 140 180 L 140 100 Q 120 110 100 110 Q 80 110 60 100" fill="#3a5795" stroke="#2b2b2b" stroke-width="2" />
  <!-- Tie -->
  <path d="M95 110 L 90 140 L 100 160 L 110 140 L 105 110" fill="#cc0000" />
  <!-- Worried Expression -->
  <path d="M75 55 Q 80 50 85 55" fill="none" stroke="#2b2b2b" stroke-width="1" /> <!-- Left brow furrow -->
  <path d="M115 55 Q 120 50 125 55" fill="none" stroke="#2b2b2b" stroke-width="1" /> <!-- Right brow furrow -->
</svg>
