<svg xmlns="http://www.w3.org/2000/svg" viewBox="0 0 200 200">
  <!-- Family Member Avatar -->
  <!-- Head -->
  <circle cx="100" cy="70" r="50" fill="#f5d0b0" />
  <!-- Hair -->
  <path d="M60 60 Q 60 30 100 30 Q 140 30 140 60 L 140 80 Q 120 90 80 90 Q 60 80 60 60" fill="#2b2b2b" />
  <!-- Face -->
  <circle cx="80" cy="65" r="5" fill="#2b2b2b" /> <!-- Left eye -->
  <circle cx="120" cy="65" r="5" fill="#2b2b2b" /> <!-- Right eye -->
  <path d="M90 80 Q 100 85 110 80" fill="none" stroke="#2b2b2b" stroke-width="2" /> <!-- Neutral expression -->
  <!-- Clothing -->
  <path d="M60 100 L 60 180 L 140 180 L 140 100 Q 120 110 100 110 Q 80 110 60 100" fill="#e6e6e6" stroke="#cccccc" stroke-width="2" />
  <!-- Necklace -->
  <path d="M90 115 Q 100 125 110 115" fill="none" stroke="#ffd700" stroke-width="2" />
  <circle cx="100" cy="125" r="3" fill="#ffd700" />
  <!-- Worried Expression -->
  <path d="M75 55 Q 70 50 65 55" fill="none" stroke="#2b2b2b" stroke-width="1" /> <!-- Left brow furrow -->
  <path d="M125 55 Q 130 50 135 55" fill="none" stroke="#2b2b2b" stroke-width="1" /> <!-- Right brow furrow -->
</svg>
