<svg xmlns="http://www.w3.org/2000/svg" viewBox="0 0 200 200">
  <!-- Medical Student Avatar -->
  <!-- Head -->
  <circle cx="100" cy="70" r="50" fill="#f5d0b0" />
  <!-- Hair -->
  <path d="M60 50 Q 60 30 100 20 Q 140 30 140 50 L 140 70 Q 120 80 80 80 Q 60 70 60 50" fill="#8B4513" />
  <!-- Face -->
  <circle cx="80" cy="65" r="5" fill="#2b2b2b" /> <!-- Left eye -->
  <circle cx="120" cy="65" r="5" fill="#2b2b2b" /> <!-- Right eye -->
  <path d="M90 85 Q 100 90 110 85" fill="none" stroke="#2b2b2b" stroke-width="2" /> <!-- Smile -->
  <!-- Glasses -->
  <rect x="75" y="60" width="15" height="10" rx="3" ry="3" fill="none" stroke="#2b2b2b" stroke-width="1" />
  <rect x="110" y="60" width="15" height="10" rx="3" ry="3" fill="none" stroke="#2b2b2b" stroke-width="1" />
  <line x1="90" y1="65" x2="110" y2="65" stroke="#2b2b2b" stroke-width="1" />
  <!-- Medical Coat -->
  <path d="M60 100 L 60 180 L 140 180 L 140 100 Q 120 110 100 110 Q 80 110 60 100" fill="#ffffff" stroke="#cccccc" stroke-width="2" />
  <!-- Collar -->
  <path d="M80 100 L 100 120 L 120 100" fill="none" stroke="#cccccc" stroke-width="2" />
  <!-- Stethoscope -->
  <path d="M90 130 Q 80 140 90 150 Q 100 160 110 150 Q 120 140 110 130" fill="none" stroke="#2b2b2b" stroke-width="2" />
  <circle cx="100" cy="155" r="5" fill="#2b2b2b" />
  <!-- ID Badge -->
  <rect x="75" y="130" width="15" height="20" fill="#ffffff" stroke="#2b2b2b" stroke-width="1" />
</svg>
